:SAMPLES-PER-SECOND 30
:FULLY-SPECIFIED
:DEGREES
228
root  -2.98011 35.1807 -5.66961 -159.823 22.9764 -177.091
RightUpLeg  -42.228 -17.2847 0.963528
RightLeg  23.6038 -6.42394 -2.32489
RightFoot  20.1095 0.470881 -2.08276
RightToes  -30.1512 -0.144963 -0.253015
Spine  4.08178 1.02194 -0.643466
Spine1  7.28036 2.77947 -1.72628
HEad  -55.3551 -8.31474 7.61073
LeftShoulder1  -1.94126e-019 -3.10601e-018 -2.51263e-017
LeftArm  33.8162 -25.8594 -96.4627
LeftForeArm  97.2712 -79.5096 -49.8143
LeftHand  -1.63297 -3.03906 22.5018
RightShoulder  -4.96962e-017 0 -2.36833e-017
RightArm  -19.4867 33.4079 53.7556
RightForeArm  43.4882 58.5532 14.3042
RightHand  -0.796189 -1.1618 -21.6999
LeftUpLeg  -29.5161 10.2651 3.17731
LeftLeg  38.9364 1.11165 0.779358
LeftFoot  9.77123 -0.0211344 0.408765
LeftToes  -39.4771 1.9075e-006 4.29692e-008
229
root  -1.81257 34.6177 -7.33248 -161.672 17.049 -179.096
RightUpLeg  -41.6996 -23.1839 -0.884721
RightLeg  24.827 -13.0421 -4.98806
RightFoot  22.7847 1.16753 -5.1765
RightToes  -19.3837 -0.0780498 -0.171849
Spine  3.74016 0.882966 -0.16013
Spine1  6.82512 2.43982 -0.73452
HEad  -56.4751 -14.0057 11.1646
LeftShoulder1  -1.94126e-019 -3.10601e-018 -2.51263e-017
LeftArm  37.3761 -17.4139 -96.9162
LeftForeArm  107.023 -80.6449 -59.1552
LeftHand  -1.64036 -3.28301 21.9896
RightShoulder  -4.96962e-017 0 -2.36833e-017
RightArm  -24.2546 20.0814 56.9496
RightForeArm  47.4452 72.79 32.0837
RightHand  0.0952257 -5.80891 -26.9837
LeftUpLeg  -29.721 12.3664 3.31465
LeftLeg  44.9072 -2.52723 -2.2203
LeftFoot  9.45554 0.0430869 -0.359481
LeftToes  -45.5566 1.9075e-006 4.29692e-008
230
root  -0.513363 33.6065 -9.33839 -164.805 9.85442 179.736
RightUpLeg  -34.8324 -29.8615 -5.93952
RightLeg  30.4205 -3.42095 -1.7317
RightFoot  18.3282 0.245472 -0.965762
RightToes  -39.5179 -0.214643 -0.312383
Spine  3.10791 -1.13331 0.093598
Spine1  5.82185 -1.89666 0.122978
HEad  -54.3039 -17.9879 12.8903
LeftShoulder1  -1.94126e-019 -3.10601e-018 -2.51263e-017
LeftArm  39.7621 -10.1571 -94.0429
LeftForeArm  119.704 -81.5366 -73.3749
LeftHand  -1.64092 -3.78403 20.8425
RightShoulder  -4.96962e-017 0 -2.36833e-017
RightArm  -20.5518 13.6138 58.9265
RightForeArm  74.6976 78.8565 55.0051
RightHand  0.817797 -8.3124 -31.6352
LeftUpLeg  -28.6332 13.3879 6.05424
LeftLeg  53.6088 -3.3796 -4.01864
LeftFoot  4.85307 0.0191551 -0.290525
LeftToes  -41.0319 1.9075e-006 4.29692e-008
231
root  0.789001 32.2642 -11.2081 -167.128 5.94385 179.47
RightUpLeg  -29.104 -35.0571 -9.07521
RightLeg  37.3779 0.905368 0.583847
RightFoot  3.10204 0.00602144 0.286599
RightToes  -43.2779 -0.245183 -0.33288
Spine  2.00701 -2.92425 -0.247126
Spine1  3.78839 -5.53627 -0.300933
HEad  -50.6773 -20.0767 13.2758
LeftShoulder1  -1.94126e-019 -3.10601e-018 -2.51263e-017
LeftArm  41.817 -4.86534 -90.36
LeftForeArm  140.259 -81.8889 -93.0992
LeftHand  -1.57728 -4.06695 19.4833
RightShoulder  -4.96962e-017 0 -2.36833e-017
RightArm  -12.8496 11.9621 63.3456
RightForeArm  95.7464 80.5547 74.4148
RightHand  1.33473 -8.97296 -40.8931
LeftUpLeg  -28.3146 13.9943 10.3901
LeftLeg  63.8314 -0.427613 -0.760017
LeftFoot  -1.58988 0.000656397 0.208789
LeftToes  -36.646 1.9075e-006 4.29692e-008
232
root  1.68429 31.5222 -12.694 -168.208 8.62706 -179.104
RightUpLeg  -27.6056 -33.685 -8.65659
RightLeg  41.983 1.04052 0.793466
RightFoot  -3.83622 -0.0123862 0.183831
RightToes  -41.472 -0.230347 -0.323285
Spine  1.71044 -2.57336 -0.046708
Spine1  3.18175 -4.74526 0.095423
HEad  -50.9368 -20.0262 14.1676
LeftShoulder1  -1.94126e-019 -3.10601e-018 -2.51263e-017
LeftArm  41.3334 -2.40849 -88.9691
LeftForeArm  137.009 -81.9648 -87.6575
LeftHand  -1.65168 -3.97067 20.5732
RightShoulder  -4.96962e-017 0 -2.36833e-017
RightArm  -4.47683 14.3518 67.5827
RightForeArm  101.706 80.8209 76.5213
RightHand  1.32516 -8.19405 -50.1956
LeftUpLeg  -27.8449 11.9444 14.2866
LeftLeg  71.462 2.70205 6.56242
LeftFoot  -6.58174 -0.0440258 -0.604133
LeftToes  -24.3045 1.9075e-006 4.29692e-008
233
root  2.24237 31.2245 -13.9725 -168.728 12.9682 -178.616
RightUpLeg  -28.8553 -27.7115 -8.92156
RightLeg  47.6539 -1.45784 -1.44741
RightFoot  -4.4552 -0.00403809 0.468115
RightToes  -42.6379 -0.239891 -0.322087
Spine  1.69554 -1.24925 0.0110318
Spine1  3.1718 -2.08457 0.295432
HEad  -52.7064 -20.3001 14.4762
LeftShoulder1  -1.94126e-019 -3.10601e-018 -2.51263e-017
LeftArm  40.0974 -2.65108 -89.2246
LeftForeArm  123.042 -81.641 -74.0077
LeftHand  -1.62405 -3.82675 20.5434
RightShoulder  -4.96962e-017 0 -2.36833e-017
RightArm  0.826227 18.1485 70.548
RightForeArm  91.313 79.8668 57.3783
RightHand  1.04952 -7.42786 -53.6984
LeftUpLeg  -29.0097 7.97712 15.5125
LeftLeg  75.6553 2.53144 7.7032
LeftFoot  -8.84386 -0.0918075 -1.02563
LeftToes  -19.1111 1.9075e-006 4.29692e-008
234
root  2.47344 31.2067 -15.2509 -169.346 14.2784 -178.232
RightUpLeg  -25.0114 -27.1112 -9.62884
RightLeg  45.4061 -2.18416 -1.98176
RightFoot  -6.01486 0.00295309 0.627924
RightToes  -41.9956 -0.234618 -0.326115
Spine  1.79683 -0.662894 -0.0104387
Spine1  3.33397 -0.89619 0.248158
HEad  -49.5416 -21.5041 13.4852
LeftShoulder1  -1.94126e-019 -3.10601e-018 -2.51263e-017
LeftArm  38.9767 -3.86443 -88.639
LeftForeArm  115.534 -81.2568 -66.7453
LeftHand  -1.61084 -3.45692 21.1991
RightShoulder  -4.96962e-017 0 -2.36833e-017
RightArm  0.28497 20.9489 72.5973
RightForeArm  80.2655 77.1617 39.7202
RightHand  0.668083 -6.66226 -53.941
LeftUpLeg  -32.0484 3.44822 16.0662
LeftLeg  76.0939 1.86648 5.83999
LeftFoot  -6.98514 -0.0413518 -0.516009
LeftToes  -22.744 1.9075e-006 4.29692e-008
